<svg xmlns="http://www.w3.org/2000/svg" xmlns:xlink="http://www.w3.org/1999/xlink" viewBox="75 95 350 350">
  <defs>
    <linearGradient id="linear-gradient" x1="127.1" y1="250" x2="357.79" y2="250" gradientUnits="userSpaceOnUse">
      <stop offset="0" stop-color="#fcff02"/>
      <stop offset="1" stop-color="#6eb707"/>
    </linearGradient>
  </defs>
  <path fill="url(#linear-gradient)" d="M304.61,267.98c-3.88,7.51-10.13,13.6-17.76,17.29-5.15,2.49-10.92,3.88-17.01,3.88-1.2,0-2.38-.06-3.55-.17-19.95-1.79-35.6-18.55-35.6-38.97,0-15.4,8.9-28.73,21.84-35.12,5.21-2.57,11.1-4.02,17.31-4.02s11.56,1.32,16.6,3.68c.64.3,1.28.63,1.9.96.34.18.67.37,1.01.56.67.38,1.32.78,1.96,1.2.23.15.45.31.68.47.59.4,1.16.82,1.72,1.26.16.13.33.24.49.37.68.55,1.34,1.12,1.99,1.71.16.14.31.29.47.43,2.98,2.81,5.53,6.08,7.51,9.71l52.51-54.94c-1.68-1.96-3.41-3.87-5.22-5.72h.01c-.3-.32-.61-.63-.91-.93-.11-.1-.23-.22-.33-.33-.69-.68-1.39-1.36-2.09-2.02-.75-.71-1.5-1.41-2.27-2.1-2.31-2.08-4.71-4.05-7.18-5.94-1.49-1.14-3.02-2.24-4.57-3.29-.45-.32-.9-.62-1.36-.92-.45-.31-.91-.61-1.37-.9-1.31-.85-2.63-1.67-3.97-2.45-.8-.47-1.62-.93-2.44-1.39-.76-.41-1.52-.83-2.29-1.23-.14-.08-.29-.16-.43-.22-.75-.39-1.5-.78-2.26-1.15-2.52-1.25-5.1-2.4-7.72-3.45-.87-.34-1.76-.69-2.64-1.02-13.18-4.94-27.5-7.49-42.42-7.14-1.18.02-2.37.07-3.54.14v.02c-24.54,1.31-47,10.37-65,24.79-6.47,5.18-12.36,11.06-17.56,17.51l17.33,17.33c15.24-20.21,38.91-33.69,65.79-35.24,1.72-.1,3.47-.15,5.22-.15,12.72,0,24.8,2.68,35.74,7.49.43.18.85.37,1.28.56.52.23,1.02.47,1.53.71,1.17.55,2.33,1.14,3.48,1.73.61.32,1.21.64,1.8.99.57.32,1.15.64,1.71.98.57.33,1.14.68,1.7,1.02.34.22.7.44,1.05.65.34.22.68.44,1.02.67.94.61,1.86,1.24,2.78,1.9l-17.91,18.72c-.18-.11-.37-.22-.55-.33-.14-.08-.27-.16-.41-.25-.74-.45-1.49-.88-2.25-1.29-.1-.06-.2-.11-.3-.17-4.78-2.59-9.92-4.59-15.32-5.9-.53-.13-1.06-.24-1.6-.36-4.77-1.02-9.74-1.5-14.83-1.39-1.19.02-2.37.09-3.54.18v.03c-11.14.87-21.48,4.6-30.28,10.46-6.87,4.71-12.99,10.51-17.57,17.46-6.66,9.86-10.64,21.66-10.88,34.4-.01.21-.01.41-.01.62v.62c0,34.02,26.65,61.82,60.21,63.66,1.18.06,2.36.1,3.55.1,5.09,0,10.05-.6,14.8-1.73.53-.13,1.06-.25,1.59-.39,6.72-1.78,13-4.63,18.65-8.36l18.32,18.32c-14.89,11.11-33.36,17.69-53.36,17.69-1.19,0-2.37-.04-3.55-.09-47.68-1.87-85.75-41.07-85.75-89.2v-.33c0-1.06.02-2.11.07-3.16l11.61,3.65-7.26-28.51-5.77-22.63-18.11,16.99-19.42,18.23,14.79,4.65c-.34,3.65-.53,7.36-.53,11.11,0,61.73,49.1,111.98,110.37,113.85,1.18.04,2.36.06,3.55.06,26.8,0,51.45-9.27,70.91-24.77,6.48-5.16,12.38-11.02,17.6-17.45l-53.74-53.74Z"/>
</svg>
