<?xml version="1.0" encoding="UTF-8"?>
<svg id="Layer_1" data-name="Layer 1" xmlns="http://www.w3.org/2000/svg" viewBox="0 0 531.39 192.76">
  <defs>
    <style>
      .cls-1 {
        fill: #fff;
      }
    </style>
  </defs>
  <path class="cls-1" d="M77.88,113.58c-3.97-2.5-7.02-6-9.16-10.5-2.14-4.5-3.21-9.73-3.21-15.69s1.07-11.19,3.21-15.69c2.14-4.5,5.2-8,9.16-10.5,3.97-2.5,8.69-3.75,14.16-3.75,6.29,0,11.56,1.64,15.83,4.91s7.28,7.7,9.03,13.29l-10.42,3.03c-1.01-3.49-2.72-6.19-5.13-8.12-2.41-1.93-5.51-2.89-9.31-2.89-5.2,0-9.1,1.79-11.73,5.37s-3.93,8.36-3.93,14.35,1.31,10.77,3.93,14.35c2.62,3.58,6.53,5.37,11.73,5.37,3.8,0,6.91-.97,9.31-2.91,2.41-1.94,4.12-4.64,5.13-8.1l10.42,3.03c-1.75,5.59-4.76,10.02-9.03,13.29s-9.55,4.91-15.83,4.91c-5.47,0-10.2-1.25-14.16-3.75Z"/>
  <path class="cls-1" d="M126.78,57.46h10.34v58.68h-10.34v-58.68Z"/>
  <path class="cls-1" d="M153.23,115.56c-2.04-1.18-3.59-2.77-4.64-4.75-1.05-1.98-1.58-4.17-1.58-6.57,0-3.01.67-5.61,2.01-7.8s3.66-3.93,6.96-5.21c1.98-.74,4.43-1.39,7.37-1.94,2.94-.54,6.34-1.11,10.19-1.7-.2-2.02-.9-3.51-2.09-4.45-1.19-.94-3-1.42-5.44-1.42-1.52,0-3.1.39-4.75,1.16-1.65.77-2.8,2.14-3.46,4.11l-9.35-3.11c1.04-3.57,2.99-6.47,5.85-8.7,2.86-2.24,6.77-3.35,11.71-3.35,3.62,0,6.84.59,9.66,1.76,2.81,1.17,4.94,3.19,6.39,6.07.81,1.6,1.29,3.19,1.44,4.79.15,1.6.23,3.38.23,5.35v26.35h-9.05v-5.27c-1.82,2.26-3.82,3.91-5.99,4.93-2.17,1.02-4.83,1.54-8,1.54-2.94,0-5.43-.59-7.47-1.78ZM167.71,107.74c1.3-.7,2.34-1.51,3.12-2.42.77-.9,1.3-1.66,1.58-2.28.43-.93.71-2.02.84-3.25.13-1.24.2-2.38.23-3.41-3.47.61-6.06,1.11-7.77,1.5-1.71.39-3.15.81-4.32,1.26-1.52.64-2.61,1.35-3.27,2.14-.66.79-.99,1.72-.99,2.81,0,1.46.52,2.61,1.56,3.45s2.45,1.26,4.22,1.26c1.9,0,3.5-.35,4.81-1.06Z"/>
  <path class="cls-1" d="M194.38,73.03h9.12v6.95c.53-1.01,1.16-1.93,1.88-2.75.72-.82,1.56-1.53,2.53-2.12,1.5-.96,3.17-1.6,5.02-1.94,1.85-.33,3.7-.38,5.55-.14v10.14c-1.14-.37-2.47-.5-3.97-.38-1.51.12-2.87.49-4.09,1.1-3.75,1.81-5.63,5.22-5.63,10.22v22.03h-10.42v-43.11Z"/>
  <path class="cls-1" d="M227.22,57.46h10.34v9.58h-10.34v-9.58ZM227.22,73.03h10.34v43.11h-10.34v-43.11Z"/>
  <path class="cls-1" d="M266.02,116.88c-2.72-.07-5.16-.57-7.3-1.52-2.14-.94-3.77-2.47-4.88-4.57-1.01-1.97-1.55-3.97-1.6-6.01s-.08-4.34-.08-6.93v-16.45h-6.99v-8.38h6.99v-11.98h10.34v11.98h11.86v8.38h-11.86v15.81c0,1.68.02,3.19.06,4.53.04,1.34.3,2.42.78,3.21.91,1.52,2.37,2.34,4.37,2.47,2,.13,4.22.03,6.65-.32v9.02c-2.84.56-5.62.8-8.34.74Z"/>
  <path class="cls-1" d="M295.12,115.78l-16.58-42.75h10.72l10.8,29.34,10.72-29.34h10.34l-23.19,62.27h-9.58l6.77-19.52Z"/>
  <path class="cls-1" d="M336.54,113.58c-3.97-2.5-7.02-6-9.16-10.5-2.14-4.5-3.21-9.73-3.21-15.69s1.07-11.19,3.21-15.69c2.14-4.5,5.2-8,9.16-10.5,3.97-2.5,8.69-3.75,14.16-3.75s10.19,1.25,14.16,3.75c3.97,2.5,7.02,6,9.16,10.5,2.14,4.5,3.21,9.73,3.21,15.69s-1.07,11.19-3.21,15.69c-2.14,4.5-5.2,8-9.16,10.5-3.97,2.5-8.69,3.75-14.16,3.75s-10.2-1.25-14.16-3.75ZM362.41,101.81c2.59-3.62,3.88-8.42,3.88-14.41s-1.29-10.75-3.88-14.29c-2.59-3.54-6.49-5.35-11.71-5.43-5.2-.08-9.09,1.69-11.69,5.31-2.6,3.62-3.9,8.42-3.9,14.41s1.3,10.75,3.9,14.29c2.6,3.54,6.49,5.35,11.69,5.43,5.22.08,9.12-1.69,11.71-5.31Z"/>
  <path class="cls-1" d="M385.52,73.03h9.12v2.4c1.39-1.14,2.97-2.03,4.73-2.65,1.76-.62,3.71-.94,5.84-.94,3.93,0,7.35.98,10.26,2.95,2.91,1.97,5.18,4.66,6.79,8.08,1.61,3.42,2.41,7.32,2.41,11.72s-.79,8.18-2.38,11.62c-1.58,3.43-3.8,6.15-6.63,8.14-2.84,2-6.15,2.99-9.92,2.99-1.93,0-3.71-.24-5.34-.72-1.63-.48-3.12-1.16-4.47-2.04v20.72h-10.42v-62.27ZM409.55,105.92c1.42-1.17,2.47-2.75,3.16-4.73.68-1.98,1.03-4.18,1.03-6.61s-.36-4.58-1.06-6.57c-.71-1.98-1.81-3.57-3.29-4.75-1.48-1.18-3.38-1.78-5.68-1.78-3.22,0-5.53,1.2-6.94,3.61-1.41,2.41-2.11,5.57-2.11,9.48s.71,7.07,2.13,9.48c1.42,2.41,3.85,3.61,7.3,3.61,2.23,0,4.06-.58,5.47-1.76Z"/>
  <path class="cls-1" d="M436.18,113.64c-3.18-2.46-5.11-5.94-5.8-10.44l10.57-1.68c.43,2.02,1.39,3.61,2.87,4.75,1.48,1.14,3.36,1.72,5.65,1.72,1.88,0,3.32-.38,4.33-1.14,1.01-.76,1.52-1.82,1.52-3.17,0-.85-.2-1.54-.61-2.06-.41-.52-1.31-1.03-2.72-1.54-1.41-.51-3.59-1.17-6.56-2-5.02-1.36-8.55-2.99-10.61-4.89-2.05-1.9-3.08-4.5-3.08-7.8,0-4.15,1.48-7.45,4.45-9.9,2.97-2.45,6.93-3.67,11.9-3.67s8.82,1.15,11.94,3.45c3.12,2.3,4.94,5.41,5.47,9.32l-10.57,2c-.38-3.3-2.59-5.11-6.61-5.43-1.9-.13-3.43.13-4.58.8-1.15.67-1.73,1.62-1.73,2.87,0,.75.25,1.37.74,1.88.49.51,1.52,1.02,3.08,1.56,1.56.53,3.94,1.22,7.13,2.08,4.69,1.28,8.02,2.89,9.98,4.83,1.96,1.94,2.95,4.59,2.95,7.94,0,4.42-1.52,7.89-4.56,10.42-3.04,2.53-7.25,3.79-12.62,3.79s-9.35-1.23-12.53-3.69Z"/>
</svg>