<?xml version="1.0" encoding="UTF-8"?>
<svg id="Layer_1" data-name="Layer 1" xmlns="http://www.w3.org/2000/svg" xmlns:xlink="http://www.w3.org/1999/xlink" viewBox="0 0 670 500">
  <defs>
    <style>
      .cls-1 {
        fill: url(#linear-gradient);
      }
    </style>
    <linearGradient id="linear-gradient" x1="98.93" y1="250" x2="211.24" y2="250" gradientUnits="userSpaceOnUse">
      <stop offset="0" stop-color="#fcff02"/>
      <stop offset="1" stop-color="#6eb707"/>
    </linearGradient>
  </defs>
  <g>
    <path d="M233.36,269.77c-3.38-2.13-5.98-5.11-7.81-8.95-1.83-3.83-2.74-8.29-2.74-13.37s.91-9.53,2.74-13.37c1.82-3.83,4.43-6.81,7.81-8.95,3.38-2.13,7.4-3.2,12.07-3.2,5.36,0,9.85,1.39,13.49,4.18s6.2,6.56,7.69,11.33l-8.88,2.59c-.86-2.97-2.32-5.28-4.37-6.92-2.05-1.64-4.7-2.47-7.94-2.47-4.43,0-7.76,1.53-9.99,4.57-2.24,3.05-3.35,7.13-3.35,12.23s1.12,9.18,3.35,12.23c2.24,3.05,5.57,4.57,9.99,4.57,3.24,0,5.88-.83,7.94-2.48,2.05-1.66,3.51-3.96,4.37-6.9l8.88,2.59c-1.49,4.76-4.05,8.54-7.69,11.33-3.64,2.79-8.14,4.18-13.49,4.18-4.66,0-8.69-1.07-12.07-3.2Z"/>
    <path d="M275.04,221.95h8.81v50h-8.81v-50Z"/>
    <path d="M297.57,271.46c-1.74-1.01-3.06-2.36-3.95-4.05-.9-1.69-1.34-3.55-1.34-5.6,0-2.56.57-4.78,1.72-6.65,1.14-1.87,3.12-3.35,5.93-4.44,1.68-.63,3.78-1.18,6.28-1.65,2.51-.46,5.4-.95,8.68-1.45-.17-1.72-.77-2.99-1.78-3.79-1.02-.8-2.56-1.21-4.63-1.21-1.3,0-2.65.33-4.05.99-1.4.66-2.39,1.83-2.95,3.5l-7.97-2.65c.89-3.04,2.55-5.51,4.99-7.41,2.44-1.9,5.77-2.86,9.98-2.86,3.09,0,5.83.5,8.23,1.5,2.4,1,4.21,2.72,5.44,5.17.69,1.36,1.1,2.72,1.23,4.08.13,1.36.19,2.88.19,4.56v22.45h-7.71v-4.49c-1.55,1.93-3.26,3.33-5.1,4.2-1.85.87-4.12,1.31-6.82,1.31-2.51,0-4.63-.5-6.36-1.51ZM309.91,264.79c1.11-.6,2-1.29,2.66-2.06.66-.77,1.11-1.42,1.34-1.94.37-.79.6-1.72.71-2.77.11-1.05.17-2.02.19-2.91-2.96.52-5.17.95-6.62,1.28-1.46.33-2.68.69-3.68,1.07-1.3.54-2.22,1.15-2.79,1.82-.56.67-.84,1.47-.84,2.4,0,1.25.44,2.23,1.33,2.94s2.08,1.07,3.6,1.07c1.62,0,2.99-.3,4.1-.9Z"/>
    <path d="M332.63,235.22h7.77v5.92c.45-.86.99-1.64,1.6-2.35.62-.7,1.33-1.3,2.15-1.8,1.27-.82,2.7-1.37,4.28-1.65,1.58-.28,3.15-.32,4.73-.12v8.64c-.97-.32-2.1-.43-3.39-.32-1.29.1-2.45.41-3.48.94-3.2,1.54-4.79,4.44-4.79,8.71v18.78h-8.88v-36.73Z"/>
    <path d="M360.62,221.95h8.81v8.16h-8.81v-8.16ZM360.62,235.22h8.81v36.73h-8.81v-36.73Z"/>
    <path d="M393.68,272.58c-2.32-.06-4.4-.49-6.22-1.29-1.83-.8-3.21-2.1-4.16-3.89-.86-1.68-1.32-3.38-1.36-5.12-.04-1.73-.06-3.7-.06-5.9v-14.01h-5.96v-7.14h5.96v-10.2h8.81v10.2h10.11v7.14h-10.11v13.47c0,1.43.02,2.72.05,3.86.03,1.15.25,2.06.66,2.74.78,1.29,2.02,2,3.73,2.11,1.71.11,3.59.02,5.67-.27v7.69c-2.42.48-4.79.69-7.11.63Z"/>
    <path d="M418.47,271.65l-14.12-36.43h9.13l9.2,25,9.13-25h8.81l-19.76,53.06h-8.16l5.77-16.63Z"/>
    <path d="M453.77,269.77c-3.38-2.13-5.98-5.11-7.81-8.95-1.83-3.83-2.74-8.29-2.74-13.37s.91-9.53,2.74-13.37c1.82-3.83,4.43-6.81,7.81-8.95,3.38-2.13,7.4-3.2,12.07-3.2s8.69,1.07,12.07,3.2c3.38,2.13,5.98,5.11,7.81,8.95,1.82,3.83,2.74,8.29,2.74,13.37s-.91,9.54-2.74,13.37c-1.83,3.83-4.43,6.81-7.81,8.95-3.38,2.13-7.4,3.2-12.07,3.2s-8.69-1.07-12.07-3.2ZM475.81,259.74c2.2-3.08,3.3-7.18,3.3-12.28s-1.1-9.16-3.3-12.18c-2.2-3.02-5.53-4.56-9.98-4.63-4.43-.07-7.75,1.44-9.96,4.52-2.21,3.08-3.32,7.18-3.32,12.28s1.11,9.16,3.32,12.18c2.21,3.02,5.53,4.56,9.96,4.63,4.45.07,7.77-1.44,9.98-4.52Z"/>
    <path d="M495.51,235.22h7.77v2.04c1.19-.97,2.53-1.73,4.03-2.26,1.5-.53,3.16-.8,4.97-.8,3.35,0,6.26.84,8.75,2.52,2.48,1.68,4.41,3.97,5.78,6.89,1.37,2.91,2.06,6.24,2.06,9.98s-.67,6.97-2.02,9.9c-1.35,2.93-3.23,5.24-5.65,6.94-2.42,1.7-5.24,2.55-8.45,2.55-1.64,0-3.16-.2-4.55-.61-1.39-.41-2.66-.99-3.81-1.73v17.65h-8.88v-53.06ZM515.98,263.24c1.21-1,2.11-2.34,2.69-4.03.58-1.69.88-3.57.88-5.63s-.3-3.91-.91-5.6c-.6-1.69-1.54-3.04-2.8-4.05-1.26-1.01-2.88-1.51-4.84-1.51-2.74,0-4.71,1.03-5.91,3.08-1.2,2.05-1.8,4.74-1.8,8.08s.6,6.03,1.81,8.08c1.21,2.05,3.28,3.08,6.22,3.08,1.9,0,3.46-.5,4.66-1.5Z"/>
    <path d="M538.67,269.83c-2.71-2.1-4.36-5.06-4.94-8.89l9.01-1.43c.37,1.72,1.18,3.07,2.45,4.05,1.26.98,2.87,1.46,4.81,1.46,1.6,0,2.83-.32,3.69-.97.86-.65,1.3-1.55,1.3-2.7,0-.73-.17-1.31-.52-1.75-.35-.44-1.12-.88-2.32-1.31-1.2-.43-3.06-1-5.59-1.7-4.28-1.16-7.29-2.55-9.04-4.17-1.75-1.62-2.62-3.84-2.62-6.65,0-3.54,1.26-6.35,3.79-8.44,2.53-2.09,5.91-3.13,10.14-3.13s7.52.98,10.17,2.94c2.66,1.96,4.21,4.61,4.66,7.94l-9,1.7c-.32-2.81-2.2-4.35-5.64-4.63-1.62-.11-2.92.11-3.9.68-.98.57-1.47,1.38-1.47,2.45,0,.63.21,1.17.63,1.6.42.43,1.3.87,2.62,1.33,1.33.45,3.35,1.04,6.07,1.77,4,1.09,6.83,2.46,8.5,4.12,1.67,1.66,2.51,3.91,2.51,6.77,0,3.76-1.3,6.72-3.89,8.88-2.59,2.15-6.18,3.23-10.75,3.23s-7.96-1.05-10.67-3.15Z"/>
  </g>
  <path class="cls-1" d="M185.34,258.75c-1.89,3.66-4.93,6.62-8.65,8.42-2.51,1.21-5.32,1.89-8.28,1.89-.58,0-1.16-.03-1.73-.08-9.71-.87-17.33-9.03-17.33-18.97,0-7.5,4.33-13.99,10.63-17.1,2.54-1.25,5.4-1.96,8.43-1.96s5.63.64,8.08,1.79c.31.15.62.3.93.47.17.09.33.18.49.27.32.19.64.38.96.59.11.07.22.15.33.23.29.2.57.4.84.61.08.06.16.12.24.18.33.27.65.54.97.83.08.07.15.14.23.21,1.45,1.37,2.69,2.96,3.65,4.73l25.56-26.75c-.82-.96-1.66-1.88-2.54-2.78h0c-.15-.16-.3-.31-.44-.45-.06-.05-.11-.11-.16-.16-.34-.33-.68-.66-1.02-.98-.36-.35-.73-.69-1.11-1.02-1.12-1.01-2.29-1.97-3.5-2.89-.73-.55-1.47-1.09-2.23-1.6-.22-.16-.44-.3-.66-.45-.22-.15-.44-.3-.67-.44-.64-.41-1.28-.81-1.93-1.19-.39-.23-.79-.45-1.19-.68-.37-.2-.74-.4-1.11-.6-.07-.04-.14-.08-.21-.11-.36-.19-.73-.38-1.1-.56-1.22-.61-2.48-1.17-3.76-1.68-.43-.17-.86-.34-1.29-.5-6.41-2.4-13.39-3.65-20.65-3.48-.58.01-1.15.03-1.72.07h0c-11.94.65-22.88,5.06-31.65,12.08-3.15,2.52-6.02,5.39-8.55,8.52l8.44,8.44c7.42-9.84,18.94-16.4,32.03-17.16.84-.05,1.69-.07,2.54-.07,6.19,0,12.07,1.3,17.4,3.65.21.09.41.18.62.27.25.11.5.23.74.35.57.27,1.14.55,1.69.84.3.16.59.31.88.48.28.16.56.31.83.48.28.16.55.33.83.5.17.11.34.21.51.32.17.11.33.21.5.32.46.3.91.6,1.35.92l-8.72,9.12c-.09-.06-.18-.11-.27-.16-.07-.04-.13-.08-.2-.12-.36-.22-.73-.43-1.09-.63-.05-.03-.1-.05-.15-.08-2.33-1.26-4.83-2.24-7.46-2.87-.26-.06-.51-.12-.78-.17-2.32-.5-4.74-.73-7.22-.68-.58.01-1.15.04-1.72.09h0c-5.43.44-10.46,2.25-14.74,5.11-3.34,2.29-6.32,5.12-8.56,8.5-3.24,4.8-5.18,10.55-5.3,16.75,0,.1,0,.2,0,.3v.3c0,16.56,12.97,30.09,29.31,30.99.57.03,1.15.05,1.73.05,2.48,0,4.89-.29,7.2-.84.26-.06.51-.12.77-.19,3.27-.87,6.33-2.25,9.08-4.07l8.92,8.92c-7.25,5.41-16.24,8.61-25.98,8.61-.58,0-1.15-.02-1.73-.04-23.21-.91-41.74-20-41.74-43.42v-.16c0-.51.01-1.03.03-1.54l5.65,1.78-3.53-13.88-2.81-11.02-8.82,8.27-9.46,8.87,7.2,2.26c-.17,1.78-.26,3.58-.26,5.41,0,30.05,23.9,54.51,53.73,55.43.57.02,1.15.03,1.73.03,13.05,0,25.05-4.51,34.52-12.06,3.15-2.51,6.03-5.36,8.57-8.49l-26.16-26.16Z"/>
</svg>